<mxfile host="app.diagrams.net" agent="Mozilla/5.0 (Windows NT 10.0; Win64; x64) AppleWebKit/537.36 (KHTML, like Gecko) Chrome/141.0.0.0 Safari/537.36" version="28.2.8">
  <diagram name="PÃ¡gina-1" id="vqb92KzHm6vw0gkQzpvB">
    <mxGraphModel dx="1123" dy="596" grid="1" gridSize="10" guides="1" tooltips="1" connect="1" arrows="1" fold="1" page="1" pageScale="1" pageWidth="827" pageHeight="1169" math="0" shadow="0">
      <root>
        <mxCell id="0" />
        <mxCell id="1" parent="0" />
        <mxCell id="gE4gWwd6xLO6pqEIz2K0-1" value="Usuario" style="swimlane;fontStyle=0;childLayout=stackLayout;horizontal=1;startSize=26;fillColor=none;horizontalStack=0;resizeParent=1;resizeParentMax=0;resizeLast=0;collapsible=1;marginBottom=0;whiteSpace=wrap;html=1;" parent="1" vertex="1">
          <mxGeometry x="344" y="35" width="140" height="170" as="geometry" />
        </mxCell>
        <mxCell id="gE4gWwd6xLO6pqEIz2K0-2" value="# id: number&lt;div&gt;# nombre: string&lt;div&gt;# apellido: string&lt;/div&gt;&lt;div&gt;# email: string&lt;/div&gt;&lt;/div&gt;&lt;div&gt;- password: string&lt;/div&gt;&lt;div&gt;# rol: string&lt;/div&gt;&lt;div&gt;#conectado: boolean&lt;/div&gt;" style="text;strokeColor=none;fillColor=none;align=left;verticalAlign=top;spacingLeft=4;spacingRight=4;overflow=hidden;rotatable=0;points=[[0,0.5],[1,0.5]];portConstraint=eastwest;whiteSpace=wrap;html=1;" parent="gE4gWwd6xLO6pqEIz2K0-1" vertex="1">
          <mxGeometry y="26" width="140" height="104" as="geometry" />
        </mxCell>
        <mxCell id="gE4gWwd6xLO6pqEIz2K0-4" value="+ login()&lt;div&gt;+logout()&lt;/div&gt;" style="text;strokeColor=none;fillColor=none;align=left;verticalAlign=top;spacingLeft=4;spacingRight=4;overflow=hidden;rotatable=0;points=[[0,0.5],[1,0.5]];portConstraint=eastwest;whiteSpace=wrap;html=1;" parent="gE4gWwd6xLO6pqEIz2K0-1" vertex="1">
          <mxGeometry y="130" width="140" height="40" as="geometry" />
        </mxCell>
        <mxCell id="NZ6qANrPdsnIPQe1mnq0-17" style="edgeStyle=orthogonalEdgeStyle;rounded=0;orthogonalLoop=1;jettySize=auto;html=1;entryX=0.469;entryY=1.007;entryDx=0;entryDy=0;entryPerimeter=0;dashed=1;" edge="1" parent="1" source="gE4gWwd6xLO6pqEIz2K0-5" target="ZjvFaZoW_Pr3EWX9IKla-2">
          <mxGeometry relative="1" as="geometry">
            <mxPoint x="180" y="460" as="targetPoint" />
          </mxGeometry>
        </mxCell>
        <mxCell id="gE4gWwd6xLO6pqEIz2K0-5" value="&lt;p style=&quot;margin:0px;margin-top:4px;text-align:center;&quot;&gt;&lt;i&gt;CursoCrud&amp;lt;&amp;lt;I&amp;gt;&amp;gt;&lt;/i&gt;&lt;br&gt;&lt;/p&gt;&lt;hr size=&quot;1&quot; style=&quot;border-style:solid;&quot;&gt;&lt;p style=&quot;margin:0px;margin-left:4px;&quot;&gt;+ agregarActividad()&lt;/p&gt;&lt;p style=&quot;margin:0px;margin-left:4px;&quot;&gt;+ modificarActividad()&lt;/p&gt;&lt;p style=&quot;margin:0px;margin-left:4px;&quot;&gt;+ eliminarActividad()&lt;/p&gt;&lt;p style=&quot;margin:0px;margin-left:4px;&quot;&gt;+ listarActividades()&lt;/p&gt;" style="verticalAlign=top;align=left;overflow=fill;html=1;whiteSpace=wrap;" parent="1" vertex="1">
          <mxGeometry x="230" y="590" width="190" height="120" as="geometry" />
        </mxCell>
        <mxCell id="gE4gWwd6xLO6pqEIz2K0-6" value="Curso" style="swimlane;fontStyle=0;childLayout=stackLayout;horizontal=1;startSize=26;fillColor=none;horizontalStack=0;resizeParent=1;resizeParentMax=0;resizeLast=0;collapsible=1;marginBottom=0;whiteSpace=wrap;html=1;" parent="1" vertex="1">
          <mxGeometry x="850" y="20" width="250" height="360" as="geometry" />
        </mxCell>
        <mxCell id="gE4gWwd6xLO6pqEIz2K0-7" value="# id: number&lt;div&gt;# codigo: string&lt;br&gt;&lt;div&gt;# titulo: string&lt;div&gt;# descripcion: string&lt;/div&gt;&lt;div&gt;# categoria: string&lt;/div&gt;&lt;/div&gt;&lt;/div&gt;&lt;div&gt;# docente: Docente&lt;/div&gt;&lt;div&gt;- activo: boolean&lt;/div&gt;&lt;div&gt;- actividades: List&amp;lt;Actividades&amp;gt;&lt;/div&gt;&lt;div&gt;- inscriptos: List&amp;lt;Estudiante&amp;gt;&lt;/div&gt;&lt;div&gt;- evaluaciones: List&amp;lt;Evaluacion&amp;gt;&lt;/div&gt;&lt;div&gt;&lt;br&gt;&lt;/div&gt;&lt;div&gt;+ crearCurso()&lt;/div&gt;&lt;div&gt;+ modificarCurso()&lt;/div&gt;&lt;div&gt;+ eliminarCurso()&lt;/div&gt;&lt;div&gt;+ activarCurso()&lt;/div&gt;&lt;div&gt;+ agregarActividad()&lt;/div&gt;&lt;div&gt;+ eliminarActividad()&lt;/div&gt;&lt;div&gt;+ listarActividades()&lt;/div&gt;&lt;div&gt;+ inscribirEstudiante()&lt;/div&gt;&lt;div&gt;+ eliminarEstudiante()&lt;/div&gt;&lt;div&gt;+ obtenerInscriptos()&lt;/div&gt;&lt;div&gt;+ agregarEvaluacion()&lt;/div&gt;" style="text;strokeColor=none;fillColor=none;align=left;verticalAlign=top;spacingLeft=4;spacingRight=4;overflow=hidden;rotatable=0;points=[[0,0.5],[1,0.5]];portConstraint=eastwest;whiteSpace=wrap;html=1;" parent="gE4gWwd6xLO6pqEIz2K0-6" vertex="1">
          <mxGeometry y="26" width="250" height="334" as="geometry" />
        </mxCell>
        <mxCell id="NZ6qANrPdsnIPQe1mnq0-7" style="edgeStyle=orthogonalEdgeStyle;rounded=0;orthogonalLoop=1;jettySize=auto;html=1;entryX=0.468;entryY=1.026;entryDx=0;entryDy=0;entryPerimeter=0;" edge="1" parent="1">
          <mxGeometry relative="1" as="geometry">
            <mxPoint x="413.52" y="204.99999999999997" as="targetPoint" />
            <mxPoint x="189" y="288.96" as="sourcePoint" />
            <Array as="points">
              <mxPoint x="189" y="248.96" />
              <mxPoint x="414" y="248.96" />
            </Array>
          </mxGeometry>
        </mxCell>
        <mxCell id="ZjvFaZoW_Pr3EWX9IKla-1" value="Estudiante" style="swimlane;fontStyle=0;childLayout=stackLayout;horizontal=1;startSize=26;fillColor=none;horizontalStack=0;resizeParent=1;resizeParentMax=0;resizeLast=0;collapsible=1;marginBottom=0;whiteSpace=wrap;html=1;" parent="1" vertex="1">
          <mxGeometry x="90" y="290" width="190" height="160" as="geometry" />
        </mxCell>
        <mxCell id="ZjvFaZoW_Pr3EWX9IKla-2" value="# legajo: string&lt;div&gt;- cursosInscriptos: List&amp;lt;Curso&amp;gt;&lt;/div&gt;&lt;div&gt;# progresoGeneral: number&lt;/div&gt;&lt;div&gt;- notificaciones: List&amp;lt;string&amp;gt;&lt;/div&gt;&lt;div&gt;&lt;br&gt;&lt;/div&gt;&lt;div&gt;+ incribirseCurso()&lt;/div&gt;&lt;div&gt;+ entregarTarea()&lt;/div&gt;&lt;div&gt;+ verCalificaciones()&lt;/div&gt;&lt;div&gt;&lt;br&gt;&lt;/div&gt;&lt;div&gt;&lt;br&gt;&lt;/div&gt;" style="text;strokeColor=none;fillColor=none;align=left;verticalAlign=top;spacingLeft=4;spacingRight=4;overflow=hidden;rotatable=0;points=[[0,0.5],[1,0.5]];portConstraint=eastwest;whiteSpace=wrap;html=1;" parent="ZjvFaZoW_Pr3EWX9IKla-1" vertex="1">
          <mxGeometry y="26" width="190" height="134" as="geometry" />
        </mxCell>
        <mxCell id="ZjvFaZoW_Pr3EWX9IKla-7" value="Docente" style="swimlane;fontStyle=0;childLayout=stackLayout;horizontal=1;startSize=26;fillColor=none;horizontalStack=0;resizeParent=1;resizeParentMax=0;resizeLast=0;collapsible=1;marginBottom=0;whiteSpace=wrap;html=1;" parent="1" vertex="1">
          <mxGeometry x="314" y="290" width="200" height="200" as="geometry" />
        </mxCell>
        <mxCell id="ZjvFaZoW_Pr3EWX9IKla-8" value="# especialidad: string&lt;div&gt;# cursosDictados: List&amp;lt;Curso&amp;gt;&lt;/div&gt;&lt;div&gt;- evaluacionesPendientes&lt;/div&gt;&lt;div&gt;- calificaciones: List&amp;lt;number&amp;gt;&lt;/div&gt;&lt;div&gt;&lt;br&gt;&lt;/div&gt;&lt;div&gt;+ crearCurso()&lt;/div&gt;&lt;div&gt;+ modificarCurso()&lt;/div&gt;&lt;div&gt;+ eliminarCurso()&lt;/div&gt;&lt;div&gt;+ agregarActividad()&lt;/div&gt;&lt;div&gt;+ evaluarEstudiante()&lt;/div&gt;&lt;div&gt;&lt;br&gt;&lt;/div&gt;" style="text;strokeColor=none;fillColor=none;align=left;verticalAlign=top;spacingLeft=4;spacingRight=4;overflow=hidden;rotatable=0;points=[[0,0.5],[1,0.5]];portConstraint=eastwest;whiteSpace=wrap;html=1;" parent="ZjvFaZoW_Pr3EWX9IKla-7" vertex="1">
          <mxGeometry y="26" width="200" height="174" as="geometry" />
        </mxCell>
        <mxCell id="NZ6qANrPdsnIPQe1mnq0-6" style="edgeStyle=orthogonalEdgeStyle;rounded=0;orthogonalLoop=1;jettySize=auto;html=1;entryX=0.491;entryY=1.003;entryDx=0;entryDy=0;entryPerimeter=0;" edge="1" parent="1" source="ZjvFaZoW_Pr3EWX9IKla-10" target="gE4gWwd6xLO6pqEIz2K0-4">
          <mxGeometry relative="1" as="geometry">
            <mxPoint x="660" y="240" as="targetPoint" />
          </mxGeometry>
        </mxCell>
        <mxCell id="ZjvFaZoW_Pr3EWX9IKla-10" value="Administrador" style="swimlane;fontStyle=0;childLayout=stackLayout;horizontal=1;startSize=26;fillColor=none;horizontalStack=0;resizeParent=1;resizeParentMax=0;resizeLast=0;collapsible=1;marginBottom=0;whiteSpace=wrap;html=1;" parent="1" vertex="1">
          <mxGeometry x="550" y="290" width="220" height="180" as="geometry" />
        </mxCell>
        <mxCell id="ZjvFaZoW_Pr3EWX9IKla-11" value="# permisos: List&amp;lt;string&amp;gt;&lt;br&gt;&lt;div&gt;- usuariosRegistrados: List&amp;lt;Usuario&amp;gt;&lt;/div&gt;&lt;div&gt;- reportesGenerados: List&amp;lt;Reporte&amp;gt;&lt;/div&gt;&lt;div&gt;&lt;br&gt;&lt;/div&gt;&lt;div&gt;+ crearUsuario()&lt;/div&gt;&lt;div&gt;+ eliminarUsuario()&lt;/div&gt;&lt;div&gt;+ asignarRol()&lt;/div&gt;&lt;div&gt;+ generarReporte()&lt;/div&gt;&lt;div&gt;+ gestionarCurso()&lt;/div&gt;" style="text;strokeColor=none;fillColor=none;align=left;verticalAlign=top;spacingLeft=4;spacingRight=4;overflow=hidden;rotatable=0;points=[[0,0.5],[1,0.5]];portConstraint=eastwest;whiteSpace=wrap;html=1;" parent="ZjvFaZoW_Pr3EWX9IKla-10" vertex="1">
          <mxGeometry y="26" width="220" height="154" as="geometry" />
        </mxCell>
        <mxCell id="NZ6qANrPdsnIPQe1mnq0-10" style="edgeStyle=orthogonalEdgeStyle;rounded=0;orthogonalLoop=1;jettySize=auto;html=1;dashed=1;" edge="1" parent="1" source="NZ6qANrPdsnIPQe1mnq0-1">
          <mxGeometry relative="1" as="geometry">
            <mxPoint x="660" y="480" as="targetPoint" />
          </mxGeometry>
        </mxCell>
        <mxCell id="NZ6qANrPdsnIPQe1mnq0-1" value="&lt;p style=&quot;margin:0px;margin-top:4px;text-align:center;&quot;&gt;&lt;i&gt;Crud&amp;lt;&amp;lt;I&amp;gt;&amp;gt;&lt;/i&gt;&lt;br&gt;&lt;/p&gt;&lt;hr size=&quot;1&quot; style=&quot;border-style:solid;&quot;&gt;&lt;p style=&quot;margin:0px;margin-left:4px;&quot;&gt;+ crear()&lt;/p&gt;&lt;p style=&quot;margin:0px;margin-left:4px;&quot;&gt;+ modificar()&lt;/p&gt;&lt;p style=&quot;margin:0px;margin-left:4px;&quot;&gt;+ eliminar()&lt;/p&gt;&lt;p style=&quot;margin:0px;margin-left:4px;&quot;&gt;+ obtener()&lt;/p&gt;&lt;p style=&quot;margin:0px;margin-left:4px;&quot;&gt;+ listar()&lt;/p&gt;" style="verticalAlign=top;align=left;overflow=fill;html=1;whiteSpace=wrap;" vertex="1" parent="1">
          <mxGeometry x="565" y="590" width="190" height="120" as="geometry" />
        </mxCell>
        <mxCell id="NZ6qANrPdsnIPQe1mnq0-2" value="" style="endArrow=classic;html=1;rounded=0;entryX=0.482;entryY=1.041;entryDx=0;entryDy=0;entryPerimeter=0;exitX=0.485;exitY=0.002;exitDx=0;exitDy=0;exitPerimeter=0;" edge="1" parent="1">
          <mxGeometry width="50" height="50" relative="1" as="geometry">
            <mxPoint x="413" y="288.76" as="sourcePoint" />
            <mxPoint x="413.48" y="205" as="targetPoint" />
          </mxGeometry>
        </mxCell>
        <mxCell id="NZ6qANrPdsnIPQe1mnq0-13" style="edgeStyle=orthogonalEdgeStyle;rounded=0;orthogonalLoop=1;jettySize=auto;html=1;entryX=-0.012;entryY=0.205;entryDx=0;entryDy=0;entryPerimeter=0;" edge="1" parent="1" source="gE4gWwd6xLO6pqEIz2K0-2" target="gE4gWwd6xLO6pqEIz2K0-7">
          <mxGeometry relative="1" as="geometry" />
        </mxCell>
        <mxCell id="NZ6qANrPdsnIPQe1mnq0-15" style="edgeStyle=orthogonalEdgeStyle;rounded=0;orthogonalLoop=1;jettySize=auto;html=1;entryX=0.446;entryY=0.999;entryDx=0;entryDy=0;entryPerimeter=0;dashed=1;" edge="1" parent="1" source="gE4gWwd6xLO6pqEIz2K0-5" target="ZjvFaZoW_Pr3EWX9IKla-8">
          <mxGeometry relative="1" as="geometry" />
        </mxCell>
      </root>
    </mxGraphModel>
  </diagram>
</mxfile>
